M48
; DRILL file {KiCad (5.1.6)-1} date 08/24/20 18:22:26
; FORMAT={-:-/ absolute / inch / decimal}
; #@! TF.CreationDate,2020-08-24T18:22:26+01:00
; #@! TF.GenerationSoftware,Kicad,Pcbnew,(5.1.6)-1
; #@! TF.FileFunction,Plated,1,2,PTH
FMAT,2
INCH
T1C0.0118
T2C0.0157
T3C0.0236
T4C0.0276
T5C0.0335
T6C0.0394
T7C0.0630
T8C0.1260
%
G90
G05
T1
X3.5796Y-3.9802
X3.6083Y-3.3041
X3.6112Y-4.4669
X3.6211Y-4.0058
X3.623Y-4.5122
X3.6821Y-3.997
X3.686Y-4.4689
X3.753Y-3.8957
X3.8327Y-4.1073
X3.84Y-4.83
X3.86Y-4.93
X3.8661Y-4.1073
X3.9Y-4.58
X3.9Y-4.62
X3.9125Y-4.4775
X3.9225Y-4.025
X3.94Y-4.58
X3.94Y-4.62
X3.97Y-3.97
X3.97Y-4.01
X3.98Y-4.58
X3.98Y-4.62
X4.01Y-3.97
X4.01Y-4.01
X4.0157Y-4.7016
X4.02Y-4.58
X4.02Y-4.62
X4.0219Y-4.7669
X4.0496Y-4.7236
X4.05Y-3.93
X4.05Y-3.97
X4.05Y-4.01
X4.0514Y-4.8043
X4.06Y-4.58
X4.06Y-4.62
X4.08Y-4.88
X4.0825Y-4.9475
X4.1Y-4.58
X4.1Y-4.91
X4.12Y-4.88
X4.125Y-4.9475
X4.13Y-4.68
X4.13Y-4.73
X4.14Y-4.04
X4.14Y-4.09
X4.14Y-4.32
X4.14Y-4.91
X4.1457Y-3.8268
X4.16Y-4.88
X4.17Y-4.95
X4.18Y-4.68
X4.18Y-4.73
X4.18Y-4.91
X4.1811Y-2.5512
X4.2Y-4.88
X4.21Y-4.95
X4.22Y-4.32
X4.22Y-4.91
X4.24Y-4.03
X4.24Y-4.07
X4.24Y-4.88
X4.2441Y-4.2707
X4.2451Y-4.2982
X4.25Y-4.2165
X4.25Y-4.95
X4.26Y-4.91
X4.28Y-3.6
X4.28Y-4.07
X4.28Y-4.11
X4.28Y-4.43
X4.28Y-4.47
X4.28Y-4.51
X4.28Y-4.88
X4.29Y-4.95
X4.292Y-3.9158
X4.3081Y-4.0069
X4.31Y-4.14
X4.32Y-4.43
X4.32Y-4.47
X4.32Y-4.51
X4.3219Y-3.9823
X4.3297Y-3.9006
X4.3445Y-3.7313
X4.3484Y-4.9843
X4.3524Y-4.8465
X4.37Y-4.22
X4.37Y-4.26
X4.377Y-3.9734
X4.38Y-4.18
X4.3829Y-3.9429
X4.42Y-4.18
X4.4232Y-3.3287
X4.4242Y-3.4173
X4.4252Y-4.0217
X4.4547Y-4.0118
X4.46Y-4.18
X4.4626Y-3.5935
X4.4665Y-4.0512
X4.4941Y-4.0276
X4.5Y-4.18
X4.5169Y-3.8748
X4.5197Y-3.9213
X4.52Y-3.74
X4.52Y-3.78
X4.5226Y-4.0384
X4.54Y-4.51
X4.5433Y-4.0669
X4.5472Y-2.7559
X4.57Y-4.4
X4.5725Y-4.192
X4.5827Y-4.063
X4.59Y-4.37
X4.5915Y-4.5157
X4.6102Y-4.7933
X4.6181Y-4.1142
X4.62Y-4.45
X4.65Y-4.42
X4.65Y-4.48
X4.6585Y-4.9262
X4.6604Y-4.7913
X4.6634Y-5.1299
X4.68Y-4.45
X4.7106Y-4.9262
X4.72Y-4.42
X4.72Y-4.48
X4.7234Y-4.19
X4.7402Y-5.0089
X4.7854Y-4.8484
X4.7874Y-4.999
X4.7992Y-4.7559
X4.8284Y-5.1503
X4.8563Y-4.7402
X4.9547Y-4.7657
X4.9606Y-4.5709
X4.961Y-4.2135
X4.9655Y-3.9125
X5.001Y-4.6152
X5.001Y-3.924
X5.001Y-4.2225
X5.2362Y-5.0266
X5.2411Y-4.999
X5.255Y-4.6304
X5.271Y-4.6785
X5.3051Y-5.0443
X5.3205Y-4.3035
X5.3307Y-5.0207
X5.3655Y-4.2584
X5.382Y-3.5005
X5.383Y-4.13
X5.3848Y-4.1781
X5.4055Y-4.2087
X5.4112Y-4.151
X5.436Y-4.1245
X5.438Y-3.9315
X5.6998Y-5.2293
X5.7156Y-4.936
X5.811Y-4.938
X5.9134Y-4.94
X5.9646Y-3.2461
X5.9862Y-4.0094
X5.9902Y-3.6309
X5.9921Y-3.0551
X6.0118Y-4.94
X6.0157Y-3.0315
X6.0217Y-4.0344
X6.0315Y-3.7323
X6.0394Y-3.0079
X6.0502Y-4.1506
X6.0709Y-2.9921
X6.0906Y-3.7185
X6.1024Y-3.0
X6.1053Y-3.9488
X6.1053Y-3.9803
X6.1122Y-4.0571
X6.1132Y-4.939
X6.115Y-4.176
X6.126Y-2.9213
X6.126Y-3.0315
X6.1417Y-2.8898
X6.1496Y-3.0079
X6.1732Y-2.9213
X6.18Y-3.11
X6.18Y-3.15
X6.18Y-3.19
X6.18Y-3.23
X6.18Y-3.27
X6.18Y-3.31
X6.18Y-3.35
X6.18Y-3.43
X6.1811Y-3.0472
X6.1919Y-3.375
X6.2126Y-4.94
X6.22Y-3.0464
X6.22Y-3.0864
X6.22Y-3.1264
X6.22Y-3.1664
X6.22Y-3.2064
X6.22Y-3.2464
X6.22Y-3.2864
X6.22Y-3.3264
X6.22Y-3.43
X6.24Y-3.4
X6.26Y-3.43
X6.2776Y-3.7913
X6.2783Y-3.23
X6.28Y-3.04
X6.28Y-3.08
X6.28Y-3.12
X6.2913Y-3.9441
X6.3Y-3.43
X6.311Y-4.939
X6.3114Y-4.1724
X6.3183Y-3.23
X6.32Y-3.11
X6.32Y-3.15
X6.3261Y-3.9649
X6.3386Y-3.6329
X6.34Y-3.27
X6.34Y-3.4
X6.34Y-3.43
X6.3474Y-3.81
X6.3514Y-3.7697
X6.3583Y-3.23
X6.361Y-4.1736
X6.38Y-3.27
X6.3983Y-3.23
X6.411Y-4.1736
X6.4114Y-4.938
X6.42Y-3.27
X6.4449Y-3.1575
X6.4577Y-3.6496
X6.46Y-3.46
X6.46Y-3.5
X6.46Y-3.54
X6.46Y-3.58
X6.4636Y-3.3839
X6.4646Y-3.3553
X6.4705Y-4.1949
X6.4744Y-3.6772
X6.48Y-4.0
X6.4862Y-3.4065
X6.502Y-3.4817
X6.502Y-3.5217
X6.502Y-3.5617
X6.5059Y-3.4301
X6.5079Y-3.1772
X6.5079Y-3.6772
X6.52Y-3.96
X6.52Y-4.0
X6.5335Y-4.1791
X6.5354Y-3.2008
X6.54Y-3.46
X6.54Y-3.5
X6.5551Y-3.1732
X6.56Y-3.92
X6.56Y-3.96
X6.56Y-4.0
X6.574Y-3.2051
X6.5906Y-3.1693
X6.5945Y-4.1781
X6.6Y-3.92
X6.6Y-3.96
X6.6Y-4.0
X6.6145Y-3.1494
X6.624Y-3.8898
X6.627Y-4.1791
X6.63Y-3.84
X6.64Y-3.96
X6.654Y-3.146
X6.6555Y-4.1841
X6.6665Y-3.114
X6.67Y-3.8
X6.67Y-3.84
X6.67Y-3.88
X6.674Y-3.067
X6.68Y-3.49
X6.68Y-4.04
X6.688Y-4.19
X6.695Y-3.0485
X6.71Y-4.3
X6.712Y-3.7764
X6.712Y-3.8164
X6.712Y-3.8564
X6.712Y-3.8964
X6.7165Y-4.2431
X6.7195Y-4.19
X6.72Y-3.45
X6.72Y-4.0
X6.72Y-4.04
X6.7275Y-3.0478
X6.738Y-3.0205
X6.7451Y-3.4744
X6.75Y-3.72
X6.75Y-3.76
X6.75Y-3.8
X6.75Y-3.84
X6.75Y-3.88
X6.75Y-3.92
X6.752Y-4.315
X6.7559Y-3.4193
X6.7598Y-3.501
X6.76Y-4.0
X6.76Y-4.04
X6.7687Y-4.2844
X6.7793Y-3.0356
X6.78Y-3.45
X6.79Y-3.6997
X6.79Y-3.7397
X6.79Y-3.7797
X6.79Y-3.8197
X6.79Y-3.8597
X6.79Y-3.8997
X6.7913Y-4.3081
X6.8Y-4.0
X6.8Y-4.04
X6.802Y-3.057
X6.81Y-4.2785
X6.8209Y-3.3996
X6.8285Y-3.0865
X6.8294Y-3.6662
X6.8313Y-3.7194
X6.8313Y-3.7594
X6.8313Y-3.7994
X6.8313Y-3.8394
X6.8317Y-4.3071
X6.84Y-4.0
X6.84Y-4.04
X6.8524Y-4.2766
X6.873Y-3.0945
X6.874Y-4.3041
X6.878Y-3.6118
X6.88Y-4.0
X6.88Y-4.04
X6.8898Y-4.1998
X6.8916Y-3.3377
X6.895Y-3.0695
X6.9035Y-3.5709
X6.9104Y-4.1722
X6.9175Y-3.043
X6.918Y-3.6118
X6.92Y-4.0
X6.9349Y-3.322
X6.936Y-4.1516
X6.948Y-3.032
X6.9488Y-3.5709
X6.9488Y-4.0512
X6.958Y-3.6118
X6.96Y-3.89
X6.9685Y-4.0207
X6.9705Y-3.502
X6.976Y-3.024
X6.9764Y-2.9449
X6.9783Y-3.8565
X6.98Y-3.98
X6.99Y-3.32
X6.9905Y-3.5698
X6.993Y-3.05
X6.998Y-3.6118
X7.0Y-3.89
X7.0098Y-4.0207
X7.018Y-3.5318
X7.02Y-3.0255
X7.0217Y-3.8565
X7.03Y-3.32
X7.0305Y-3.5698
X7.0315Y-4.1644
X7.038Y-3.6118
X7.04Y-3.89
X7.0435Y-3.0025
X7.0502Y-3.9705
X7.058Y-3.5318
X7.062Y-3.029
X7.0669Y-4.1713
X7.07Y-3.32
X7.0705Y-3.5698
X7.0728Y-3.8565
X7.078Y-3.6118
X7.0875Y-2.9995
X7.09Y-3.98
X7.09Y-4.02
X7.098Y-3.5318
X7.1073Y-4.1516
X7.1073Y-4.1811
X7.1095Y-3.022
X7.11Y-3.32
X7.1105Y-3.5698
X7.118Y-3.6118
X7.12Y-3.92
X7.12Y-3.96
X7.12Y-4.0
X7.12Y-4.05
X7.1211Y-3.4144
X7.1289Y-4.8996
X7.1368Y-3.3553
X7.138Y-3.5318
X7.1417Y-3.438
X7.1417Y-4.1545
X7.1457Y-3.4685
X7.1465Y-3.8902
X7.1486Y-3.3848
X7.15Y-3.32
X7.15Y-3.94
X7.15Y-3.98
X7.15Y-4.02
X7.1576Y-4.2494
X7.1722Y-3.6093
X7.1732Y-3.8337
X7.1811Y-2.8642
X7.19Y-3.3169
X7.1929Y-3.7904
X7.1969Y-2.7913
X7.1969Y-2.8268
X7.1969Y-4.2451
X7.1978Y-4.0591
X7.21Y-2.67
X7.2136Y-4.128
X7.2244Y-4.2372
X7.2411Y-4.0541
X7.2559Y-4.249
X7.2953Y-3.2067
X7.2963Y-4.0482
X7.2969Y-3.7528
X7.3Y-3.6
X7.3Y-3.64
X7.3041Y-3.4931
X7.3051Y-3.3807
X7.3071Y-3.4374
X7.3179Y-3.1801
X7.3179Y-4.0108
X7.3199Y-3.5197
X7.34Y-3.64
X7.3415Y-3.7923
X7.3484Y-3.4244
X7.3504Y-3.3839
X7.38Y-3.64
X7.38Y-4.02
X7.38Y-4.06
X7.38Y-4.1
X7.3809Y-3.8061
X7.4134Y-3.8435
X7.4144Y-3.8947
X7.4173Y-3.9272
X7.42Y-3.64
X7.42Y-4.02
X7.42Y-4.06
X7.42Y-4.1
X7.437Y-3.8159
X7.437Y-3.8671
X7.4537Y-4.8917
X7.46Y-3.64
X7.46Y-4.02
X7.46Y-4.06
X7.46Y-4.1
X7.4913Y-3.028
X7.5Y-4.06
X7.5Y-4.1
X7.502Y-2.4419
X7.502Y-2.3376
X7.5049Y-3.5276
X7.5108Y-3.5581
X7.5187Y-3.2943
X7.5197Y-3.0728
X7.5307Y-2.7882
X7.5423Y-2.3366
X7.5472Y-2.4321
X7.5705Y-2.8016
X7.5719Y-3.5246
X7.5728Y-3.3563
X7.5748Y-3.4183
X7.5758Y-3.4724
X7.624Y-5.0167
X7.6496Y-4.687
X7.6496Y-4.877
X7.7785Y-4.8947
X7.8156Y-3.4085
X8.1024Y-4.8976
T2
X5.689Y-3.002
X5.9154Y-2.9429
T4
X4.1969Y-5.1142
X4.4252Y-3.4843
X3.9862Y-3.7264
X4.0276Y-3.1378
X4.4921Y-3.3189
X4.0827Y-5.0709
X4.5472Y-3.4488
X3.77Y-3.64
T5
X3.4867Y-4.3917
X3.4867Y-4.5886
X3.4847Y-3.9075
X3.4847Y-4.1043
T6
X5.0994Y-4.1793
X5.0994Y-4.2793
X5.0994Y-4.3793
X5.0994Y-4.4793
X5.0994Y-4.5793
X5.0994Y-4.6793
X5.0994Y-4.7793
X5.0994Y-4.8793
X7.8175Y-2.43
X7.8175Y-2.53
X7.9175Y-2.43
X7.9175Y-2.53
X8.0175Y-2.43
X8.0175Y-2.53
X8.1175Y-2.43
X8.1175Y-2.53
X3.4853Y-2.4304
X3.4853Y-2.5304
X3.5853Y-2.4304
X3.5853Y-2.5304
X3.6853Y-2.4304
X3.6853Y-2.5304
X3.7853Y-2.4304
X3.7853Y-2.5304
X3.8853Y-2.4304
X3.8853Y-2.5304
X3.9853Y-2.4304
X3.9853Y-2.5304
X5.7461Y-3.1831
X5.7461Y-3.2831
X5.1007Y-5.1157
X5.1007Y-5.2157
X7.127Y-2.4305
X7.127Y-2.5305
X7.227Y-2.4305
X7.227Y-2.5305
X7.327Y-2.4305
X7.327Y-2.5305
X7.427Y-2.4305
X7.427Y-2.5305
X5.0995Y-3.0775
X5.0995Y-3.1775
X5.0995Y-3.2775
X5.0995Y-3.3775
X5.0995Y-3.4775
X5.0995Y-3.5775
X5.0995Y-3.6775
X5.0995Y-3.7775
X5.0995Y-3.8775
X5.0995Y-3.9775
X5.1995Y-3.0775
X5.1995Y-3.1775
X5.1995Y-3.2775
X5.1995Y-3.3775
X5.1995Y-3.4775
X5.1995Y-3.5775
X5.1995Y-3.6775
X5.1995Y-3.7775
X5.1995Y-3.8775
X5.1995Y-3.9775
X3.7425Y-4.77
X3.7425Y-4.87
X3.7425Y-4.97
X3.7425Y-5.07
X3.7425Y-5.17
X3.7425Y-5.27
X3.7425Y-5.37
X6.336Y-4.6311
X6.436Y-4.6311
X6.536Y-4.6311
X6.636Y-4.6311
X6.6959Y-2.7311
X6.736Y-4.6311
X6.7959Y-2.7311
X6.836Y-4.6311
X6.8959Y-2.7311
X6.936Y-4.6311
X6.9959Y-2.7311
X7.036Y-4.6311
X7.0959Y-2.7311
X7.136Y-4.6311
X7.1959Y-2.7311
X7.236Y-4.6311
X7.2959Y-2.7311
X7.3959Y-2.7311
X7.3959Y-4.6311
X7.4959Y-4.6311
X7.5959Y-2.7311
X7.5959Y-4.6311
X7.6959Y-2.7311
X7.6959Y-4.6311
X7.7959Y-2.7311
X7.7959Y-4.6311
X7.8959Y-2.7311
X7.8959Y-4.6311
X7.9959Y-2.7311
X7.9959Y-4.6311
X8.0959Y-2.7311
X8.0959Y-4.6311
X5.2057Y-5.1157
X5.2057Y-5.2157
X6.2166Y-2.43
X6.3166Y-2.43
X6.4166Y-2.43
X6.5166Y-2.43
X6.6166Y-2.43
X6.7166Y-2.43
X8.253Y-2.7313
X8.253Y-2.8313
X8.253Y-2.9313
X8.253Y-3.0313
X8.253Y-3.1313
X8.253Y-3.2313
X8.253Y-3.3313
X8.253Y-3.4313
X8.253Y-3.5313
X8.253Y-3.6313
X8.253Y-3.7313
X8.253Y-3.8313
X8.253Y-3.9313
X8.253Y-4.0313
X8.253Y-4.1313
X8.253Y-4.2313
X8.253Y-4.3313
X8.253Y-4.4313
X5.3062Y-2.4301
X5.4062Y-2.4301
X5.5062Y-2.4301
X5.6062Y-2.4301
X5.7062Y-2.4301
X5.8062Y-2.4301
X4.3957Y-2.4304
X4.3957Y-2.5304
X4.4957Y-2.4304
X4.4957Y-2.5304
X4.5957Y-2.4304
X4.5957Y-2.5304
X4.6957Y-2.4304
X4.6957Y-2.5304
X4.7957Y-2.4304
X4.7957Y-2.5304
X4.8957Y-2.4304
X4.8957Y-2.5304
X5.1995Y-4.1793
X5.1995Y-4.2793
X5.1995Y-4.3793
X5.1995Y-4.4793
X5.1995Y-4.5793
X5.1995Y-4.6793
X5.1995Y-4.7793
X5.1995Y-4.8793
T7
X3.4065Y-2.9528
X3.5246Y-3.1378
X3.6427Y-2.9528
T8
X8.3563Y-2.5039
X8.3602Y-5.0079
X5.4547Y-5.1673
X3.4862Y-3.5689
T3
G00X3.3666Y-4.3524
M15
G01X3.3942Y-4.3524
M16
G05
G00X3.3942Y-4.628
M15
G01X3.3666Y-4.628
M16
G05
G00X3.3647Y-3.8681
M15
G01X3.3922Y-3.8681
M16
G05
G00X3.3922Y-4.1437
M15
G01X3.3647Y-4.1437
M16
G05
T0
M30
