M48
METRIC,TZ
T1C0.300
T2C0.400
T3C0.600
T4C0.700
T5C0.850
T6C1.000
T7C1.600
%
G90
G05
T1
X90923Y-101098
X91650Y-83925
X91725Y-113461
X91977Y-101748
X92025Y-114611
X93525Y-101525
X93625Y-113511
X95325Y-98950
X97350Y-104325
X97536Y-122682
X98044Y-125222
X98200Y-104325
X99060Y-116332
X99060Y-117348
X99378Y-113728
X99631Y-102235
X100076Y-116332
X100076Y-117348
X100838Y-100838
X100838Y-101854
X101092Y-116332
X101092Y-117348
X101854Y-100838
X101854Y-101854
X102000Y-119420
X102108Y-116332
X102108Y-117348
X102156Y-121080
X102860Y-119980
X102870Y-99822
X102870Y-100838
X102870Y-101854
X102906Y-122030
X103124Y-116332
X103124Y-117348
X103632Y-123952
X103696Y-125667
X104140Y-116332
X104140Y-124714
X104648Y-123952
X104775Y-125667
X104902Y-118872
X104902Y-120142
X105156Y-102616
X105156Y-103886
X105156Y-109728
X105156Y-124714
X105300Y-97200
X105664Y-123952
X105918Y-125730
X106172Y-118872
X106172Y-120142
X106172Y-124714
X106200Y-64800
X106680Y-123952
X106934Y-125730
X107188Y-109728
X107188Y-124714
X107696Y-102362
X107696Y-103378
X107696Y-123952
X107800Y-108475
X107825Y-109175
X107950Y-107100
X107950Y-125730
X108204Y-124714
X108712Y-91440
X108712Y-103378
X108712Y-104394
X108712Y-112522
X108712Y-113538
X108712Y-114554
X108712Y-123952
X108966Y-125730
X109017Y-99462
X109425Y-101775
X109474Y-105156
X109728Y-112522
X109728Y-113538
X109728Y-114554
X109775Y-101150
X109975Y-99075
X110350Y-94775
X110450Y-126600
X110550Y-123100
X110998Y-107188
X110998Y-108204
X111175Y-100925
X111252Y-106172
X111325Y-100150
X112268Y-106172
X112350Y-84550
X112375Y-86800
X112400Y-102150
X113150Y-101900
X113284Y-106172
X113350Y-91275
X113450Y-102900
X114150Y-102300
X114300Y-106172
X114730Y-98420
X114800Y-99600
X114808Y-94996
X114808Y-96012
X114875Y-102575
X115316Y-114554
X115400Y-103300
X115500Y-70000
X116078Y-111760
X116142Y-106477
X116400Y-103200
X116586Y-110998
X116625Y-114700
X117100Y-121750
X117300Y-104500
X117348Y-113030
X118110Y-112268
X118110Y-113792
X118325Y-125125
X118375Y-121700
X118450Y-130300
X118872Y-113030
X119650Y-125125
X119888Y-112268
X119888Y-113792
X119975Y-106425
X120400Y-127225
X121550Y-123150
X121600Y-126975
X121900Y-120800
X122643Y-130818
X123350Y-120400
X125850Y-121050
X126000Y-116100
X126009Y-107023
X126124Y-99378
X127025Y-117225
X127025Y-99670
X127025Y-107251
X133000Y-127675
X133125Y-126975
X133477Y-117613
X133883Y-118834
X134750Y-128125
X135140Y-109308
X135400Y-127525
X136285Y-108164
X136703Y-88913
X136728Y-104902
X136775Y-106125
X137300Y-106900
X137446Y-105435
X138074Y-104762
X138125Y-99860
X144775Y-132825
X145175Y-125375
X147600Y-125425
X150200Y-125475
X151500Y-82450
X152050Y-101840
X152150Y-92225
X152200Y-77600
X152700Y-125475
X152800Y-77000
X152950Y-102475
X153200Y-94800
X153400Y-76400
X153675Y-105425
X154200Y-76000
X154700Y-94450
X155000Y-76200
X155075Y-100300
X155075Y-101100
X155250Y-103050
X155275Y-125450
X155321Y-106071
X155600Y-74200
X155600Y-77000
X156000Y-73400
X156200Y-76400
X156800Y-74200
X156972Y-78994
X156972Y-80010
X156972Y-81026
X156972Y-82042
X156972Y-83058
X156972Y-84074
X156972Y-85090
X156972Y-87122
X157000Y-77400
X157275Y-85725
X157800Y-125475
X157988Y-76962
X157988Y-77978
X157988Y-78994
X157988Y-80010
X157988Y-81026
X157988Y-82042
X157988Y-83058
X157988Y-84074
X157988Y-85090
X157988Y-87122
X158496Y-86360
X159004Y-82042
X159004Y-87122
X159450Y-96300
X159512Y-77216
X159512Y-78232
X159512Y-79248
X159800Y-100180
X160020Y-82042
X160020Y-87122
X160300Y-125450
X160310Y-105980
X160528Y-77978
X160528Y-78994
X160528Y-80010
X160683Y-100708
X161000Y-92275
X161036Y-82042
X161036Y-83058
X161036Y-86360
X161036Y-87122
X161225Y-96775
X161325Y-95750
X161570Y-106010
X162052Y-82042
X162052Y-83058
X162840Y-106010
X162850Y-125425
X163068Y-82042
X163068Y-83058
X163700Y-80200
X164025Y-92700
X164084Y-87884
X164084Y-88900
X164084Y-89916
X164084Y-90932
X164175Y-85950
X164200Y-85225
X164350Y-106550
X164450Y-93400
X164592Y-101600
X164750Y-86525
X165100Y-87884
X165100Y-88900
X165100Y-89916
X165100Y-90932
X165250Y-87125
X165300Y-80700
X165300Y-93400
X165608Y-100584
X165608Y-101600
X165950Y-106150
X166000Y-81300
X166116Y-87884
X166116Y-88900
X166116Y-89916
X166500Y-80600
X166624Y-99568
X166624Y-100584
X166624Y-101600
X166980Y-81410
X167400Y-80500
X167500Y-106125
X167640Y-99568
X167640Y-100584
X167640Y-101600
X168008Y-79994
X168250Y-98800
X168325Y-106150
X168402Y-97536
X168656Y-100584
X169012Y-79908
X169050Y-106275
X169329Y-79096
X169418Y-96520
X169418Y-97536
X169418Y-98552
X169520Y-77902
X169672Y-88646
X169672Y-102616
X169875Y-106425
X170053Y-77432
X170434Y-95504
X170434Y-96520
X170434Y-97536
X170434Y-98552
X170434Y-99568
X170434Y-109220
X170600Y-107775
X170675Y-106425
X170688Y-87630
X170688Y-101600
X170688Y-102616
X170878Y-77413
X171145Y-76721
X171325Y-88250
X171450Y-94488
X171450Y-95504
X171450Y-96520
X171450Y-97536
X171450Y-98552
X171450Y-99568
X171500Y-109600
X171600Y-86850
X171700Y-88925
X171704Y-101600
X171704Y-102616
X171925Y-108825
X172194Y-77104
X172212Y-87630
X172466Y-93472
X172466Y-94488
X172466Y-95504
X172466Y-96520
X172466Y-97536
X172466Y-98552
X172466Y-99568
X172500Y-109425
X172720Y-101600
X172720Y-102616
X172771Y-77648
X172975Y-108675
X173250Y-86350
X173444Y-78397
X173525Y-109400
X173736Y-101600
X173736Y-102616
X174050Y-108625
X174574Y-78600
X174600Y-109325
X174752Y-91440
X174752Y-101600
X174752Y-102616
X175000Y-106675
X175133Y-77965
X175514Y-90424
X175525Y-105975
X175705Y-77292
X175768Y-91440
X175768Y-101600
X175768Y-102616
X176175Y-105450
X176276Y-89408
X176479Y-77013
X176500Y-102900
X176784Y-91440
X176784Y-98806
X177000Y-102125
X177038Y-90424
X177050Y-88950
X177190Y-76810
X177200Y-74800
X177292Y-101092
X177546Y-84328
X177622Y-77470
X177800Y-91440
X177800Y-98806
X178050Y-102125
X178308Y-76848
X178308Y-89408
X178308Y-90424
X178562Y-84328
X178600Y-105775
X178816Y-91440
X178816Y-98806
X178905Y-76264
X179075Y-100850
X179324Y-89408
X179324Y-90424
X179375Y-76937
X179500Y-105950
X179578Y-84328
X179832Y-91440
X179832Y-98806
X180023Y-76187
X180086Y-101092
X180086Y-102108
X180340Y-89408
X180340Y-90424
X180525Y-105450
X180525Y-106200
X180581Y-76759
X180594Y-84328
X180848Y-91440
X180848Y-99568
X180848Y-100584
X180848Y-101600
X180848Y-102870
X180875Y-86725
X181075Y-124450
X181275Y-85225
X181356Y-89408
X181356Y-90424
X181400Y-87325
X181400Y-105525
X181500Y-88100
X181520Y-98810
X181575Y-85975
X181610Y-84328
X181610Y-100076
X181610Y-101092
X181610Y-102108
X181802Y-107935
X182175Y-91675
X182200Y-97375
X182625Y-84250
X182700Y-96275
X182800Y-107825
X182825Y-103100
X182880Y-71628
X183134Y-67818
X183225Y-104850
X183500Y-107625
X183925Y-102975
X184300Y-107925
X185300Y-81450
X185325Y-102825
X185340Y-95320
X185420Y-91440
X185420Y-92456
X185420Y-93218
X185525Y-88725
X185550Y-85870
X185600Y-87310
X185875Y-80775
X185875Y-101875
X185925Y-89400
X186436Y-92456
X186475Y-96325
X186650Y-86980
X186690Y-93218
X186700Y-85950
X187452Y-92456
X187452Y-102108
X187452Y-103124
X187452Y-104140
X187475Y-96675
X188300Y-97625
X188325Y-98925
X188400Y-99750
X188468Y-92456
X188468Y-102108
X188468Y-103124
X188468Y-104140
X188900Y-96925
X188900Y-98225
X189325Y-124250
X189484Y-92456
X189484Y-102108
X189484Y-103124
X189484Y-104140
X190246Y-91694
X190280Y-76910
X190500Y-103124
X190500Y-104140
X190550Y-62025
X190550Y-59375
X190625Y-89600
X190775Y-90375
X190975Y-83675
X191000Y-78050
X191280Y-70820
X191575Y-59350
X191700Y-61775
X192290Y-71160
X192325Y-89525
X192350Y-85250
X192400Y-86825
X192425Y-88200
X193650Y-127425
X194300Y-119050
X194300Y-123875
X197575Y-124325
X198515Y-86575
X205800Y-124400
T2
X144500Y-76250
X150250Y-74750
T4
X114100Y-84300
X102300Y-79700
X106600Y-129900
X115500Y-87600
X112400Y-88500
X94100Y-97100
X100600Y-97000
X103700Y-128800
T5
X88513Y-99250
X88513Y-104250
X88563Y-111550
X88563Y-116550
T6
X160935Y-117630
X163475Y-117630
X166015Y-117630
X168555Y-117630
X170075Y-69370
X171095Y-117630
X172615Y-69370
X173635Y-117630
X175155Y-69370
X176175Y-117630
X177695Y-69370
X178715Y-117630
X180235Y-69370
X181255Y-117630
X182775Y-69370
X183795Y-117630
X185315Y-69370
X187855Y-69370
X187855Y-117630
X190395Y-117630
X192935Y-69370
X192935Y-117630
X195475Y-69370
X195475Y-117630
X198015Y-69370
X198015Y-117630
X200555Y-69370
X200555Y-117630
X203095Y-69370
X203095Y-117630
X205635Y-69370
X205635Y-117630
X198564Y-61722
X198564Y-64262
X201105Y-61722
X201105Y-64262
X203645Y-61722
X203645Y-64262
X206184Y-61722
X206184Y-64262
X145950Y-80850
X145950Y-83390
X129558Y-129940
X129558Y-132480
X95060Y-121158
X95060Y-123698
X95060Y-126238
X95060Y-128778
X95060Y-131318
X95060Y-133858
X95060Y-136398
X209625Y-69375
X209625Y-71915
X209625Y-74455
X209625Y-76995
X209625Y-79535
X209625Y-82075
X209625Y-84615
X209625Y-87155
X209625Y-89695
X209625Y-92235
X209625Y-94775
X209625Y-97315
X209625Y-99855
X209625Y-102395
X209625Y-104935
X209625Y-107475
X209625Y-110015
X209625Y-112555
X181026Y-61735
X181026Y-64275
X183567Y-61735
X183567Y-64275
X186106Y-61735
X186106Y-64275
X188647Y-61735
X188647Y-64275
X88527Y-61732
X88527Y-64272
X91067Y-61732
X91067Y-64272
X93607Y-61732
X93607Y-64272
X96147Y-61732
X96147Y-64272
X98687Y-61732
X98687Y-64272
X101227Y-61732
X101227Y-64272
X129525Y-106155
X129525Y-108695
X129525Y-111235
X129525Y-113775
X129525Y-116315
X129525Y-118855
X129525Y-121395
X129525Y-123935
X132225Y-129940
X132225Y-132480
X111651Y-61732
X111651Y-64272
X114192Y-61732
X114192Y-64272
X116732Y-61732
X116732Y-64272
X119272Y-61732
X119272Y-64272
X121812Y-61732
X121812Y-64272
X124352Y-61732
X124352Y-64272
X132067Y-106155
X132067Y-108695
X132067Y-111235
X132067Y-113775
X132067Y-116315
X132067Y-118855
X132067Y-121395
X132067Y-123935
X134776Y-61725
X137317Y-61725
X139856Y-61725
X142397Y-61725
X144937Y-61725
X147476Y-61725
X157901Y-61722
X160442Y-61722
X162981Y-61722
X165522Y-61722
X168062Y-61722
X170601Y-61722
X129527Y-78169
X129527Y-80709
X129527Y-83248
X129527Y-85789
X129527Y-88328
X129527Y-90868
X129527Y-93408
X129527Y-95948
X129527Y-98489
X129527Y-101029
X132067Y-78169
X132067Y-80709
X132067Y-83248
X132067Y-85789
X132067Y-88328
X132067Y-90868
X132067Y-93408
X132067Y-95948
X132067Y-98489
X132067Y-101029
T7
X86525Y-75000
X89525Y-79700
X92525Y-75000
T3
G00X85462Y-98250
M15
G01X86163Y-98250
M16
G05
G00X86163Y-105250
M15
G01X85462Y-105250
M16
G05
G00X85513Y-110550
M15
G01X86212Y-110550
M16
G05
G00X86212Y-117550
M15
G01X85513Y-117550
M16
G05
T0
M30
