M48
INCH,TZ
T1C0.0118
T2C0.0157
T3C0.0236
T4C0.0276
T5C0.0335
T6C0.0394
T7C0.0630
T8C0.1260
%
G90
G05
T1
X35796Y-39802
X36083Y-33041
X36112Y-44669
X36211Y-40058
X36230Y-45122
X36821Y-39970
X36860Y-44689
X37530Y-38957
X38327Y-41073
X38400Y-48300
X38600Y-49300
X38661Y-41073
X39000Y-45800
X39000Y-46200
X39125Y-44775
X39225Y-40250
X39400Y-45800
X39400Y-46200
X39700Y-39700
X39700Y-40100
X39800Y-45800
X39800Y-46200
X40100Y-39700
X40100Y-40100
X40157Y-47016
X40200Y-45800
X40200Y-46200
X40219Y-47669
X40496Y-47236
X40500Y-39300
X40500Y-39700
X40500Y-40100
X40514Y-48043
X40600Y-45800
X40600Y-46200
X40800Y-48800
X40825Y-49475
X41000Y-45800
X41000Y-49100
X41200Y-48800
X41250Y-49475
X41300Y-46800
X41300Y-47300
X41400Y-40400
X41400Y-40900
X41400Y-43200
X41400Y-49100
X41457Y-38268
X41600Y-48800
X41700Y-49500
X41800Y-46800
X41800Y-47300
X41800Y-49100
X41811Y-25512
X42000Y-48800
X42100Y-49500
X42200Y-43200
X42200Y-49100
X42400Y-40300
X42400Y-40700
X42400Y-48800
X42441Y-42707
X42451Y-42982
X42500Y-42165
X42500Y-49500
X42600Y-49100
X42800Y-36000
X42800Y-40700
X42800Y-41100
X42800Y-44300
X42800Y-44700
X42800Y-45100
X42800Y-48800
X42900Y-49500
X42920Y-39158
X43081Y-40069
X43100Y-41400
X43200Y-44300
X43200Y-44700
X43200Y-45100
X43219Y-39823
X43297Y-39006
X43445Y-37313
X43484Y-49843
X43524Y-48465
X43700Y-42200
X43700Y-42600
X43770Y-39734
X43800Y-41800
X43829Y-39429
X44200Y-41800
X44232Y-33287
X44242Y-34173
X44252Y-40217
X44547Y-40118
X44600Y-41800
X44626Y-35935
X44665Y-40512
X44941Y-40276
X45000Y-41800
X45169Y-38748
X45197Y-39213
X45200Y-37400
X45200Y-37800
X45226Y-40384
X45400Y-45100
X45433Y-40669
X45472Y-27559
X45700Y-44000
X45725Y-41920
X45827Y-40630
X45900Y-43700
X45915Y-45157
X46102Y-47933
X46181Y-41142
X46200Y-44500
X46500Y-44200
X46500Y-44800
X46585Y-49262
X46604Y-47913
X46634Y-51299
X46800Y-44500
X47106Y-49262
X47200Y-44200
X47200Y-44800
X47234Y-41900
X47402Y-50089
X47854Y-48484
X47874Y-49990
X47992Y-47559
X48284Y-51503
X48563Y-47402
X49547Y-47657
X49606Y-45709
X49610Y-42135
X49655Y-39125
X50010Y-46152
X50010Y-39240
X50010Y-42225
X52362Y-50266
X52411Y-49990
X52550Y-46304
X52710Y-46785
X53051Y-50443
X53205Y-43035
X53307Y-50207
X53655Y-42584
X53820Y-35005
X53830Y-41300
X53848Y-41781
X54055Y-42087
X54112Y-41510
X54360Y-41245
X54380Y-39315
X56998Y-52293
X57156Y-49360
X58110Y-49380
X59134Y-49400
X59646Y-32461
X59862Y-40094
X59902Y-36309
X59921Y-30551
X60118Y-49400
X60157Y-30315
X60217Y-40344
X60315Y-37323
X60394Y-30079
X60502Y-41506
X60709Y-29921
X60906Y-37185
X61024Y-30000
X61053Y-39488
X61053Y-39803
X61122Y-40571
X61132Y-49390
X61150Y-41760
X61260Y-29213
X61260Y-30315
X61417Y-28898
X61496Y-30079
X61732Y-29213
X61800Y-31100
X61800Y-31500
X61800Y-31900
X61800Y-32300
X61800Y-32700
X61800Y-33100
X61800Y-33500
X61800Y-34300
X61811Y-30472
X61919Y-33750
X62126Y-49400
X62200Y-30464
X62200Y-30864
X62200Y-31264
X62200Y-31664
X62200Y-32064
X62200Y-32464
X62200Y-32864
X62200Y-33264
X62200Y-34300
X62400Y-34000
X62600Y-34300
X62776Y-37913
X62783Y-32300
X62800Y-30400
X62800Y-30800
X62800Y-31200
X62913Y-39441
X63000Y-34300
X63110Y-49390
X63114Y-41724
X63183Y-32300
X63200Y-31100
X63200Y-31500
X63261Y-39649
X63386Y-36329
X63400Y-32700
X63400Y-34000
X63400Y-34300
X63474Y-38100
X63514Y-37697
X63583Y-32300
X63610Y-41736
X63800Y-32700
X63983Y-32300
X64110Y-41736
X64114Y-49380
X64200Y-32700
X64449Y-31575
X64577Y-36496
X64600Y-34600
X64600Y-35000
X64600Y-35400
X64600Y-35800
X64636Y-33839
X64646Y-33553
X64705Y-41949
X64744Y-36772
X64800Y-40000
X64862Y-34065
X65020Y-34817
X65020Y-35217
X65020Y-35617
X65059Y-34301
X65079Y-31772
X65079Y-36772
X65200Y-39600
X65200Y-40000
X65335Y-41791
X65354Y-32008
X65400Y-34600
X65400Y-35000
X65551Y-31732
X65600Y-39200
X65600Y-39600
X65600Y-40000
X65740Y-32051
X65906Y-31693
X65945Y-41781
X66000Y-39200
X66000Y-39600
X66000Y-40000
X66145Y-31494
X66240Y-38898
X66270Y-41791
X66300Y-38400
X66400Y-39600
X66540Y-31460
X66555Y-41841
X66665Y-31140
X66700Y-38000
X66700Y-38400
X66700Y-38800
X66740Y-30670
X66800Y-34900
X66800Y-40400
X66880Y-41900
X66950Y-30485
X67100Y-43000
X67120Y-37764
X67120Y-38164
X67120Y-38564
X67120Y-38964
X67165Y-42431
X67195Y-41900
X67200Y-34500
X67200Y-40000
X67200Y-40400
X67275Y-30478
X67380Y-30205
X67451Y-34744
X67500Y-37200
X67500Y-37600
X67500Y-38000
X67500Y-38400
X67500Y-38800
X67500Y-39200
X67520Y-43150
X67559Y-34193
X67598Y-35010
X67600Y-40000
X67600Y-40400
X67687Y-42844
X67793Y-30356
X67800Y-34500
X67900Y-36997
X67900Y-37397
X67900Y-37797
X67900Y-38197
X67900Y-38597
X67900Y-38997
X67913Y-43081
X68000Y-40000
X68000Y-40400
X68020Y-30570
X68100Y-42785
X68209Y-33996
X68285Y-30865
X68294Y-36662
X68313Y-37194
X68313Y-37594
X68313Y-37994
X68313Y-38394
X68317Y-43071
X68400Y-40000
X68400Y-40400
X68524Y-42766
X68730Y-30945
X68740Y-43041
X68780Y-36118
X68800Y-40000
X68800Y-40400
X68898Y-41998
X68916Y-33377
X68950Y-30695
X69035Y-35709
X69104Y-41722
X69175Y-30430
X69180Y-36118
X69200Y-40000
X69349Y-33220
X69360Y-41516
X69480Y-30320
X69488Y-35709
X69488Y-40512
X69580Y-36118
X69600Y-38900
X69685Y-40207
X69705Y-35020
X69760Y-30240
X69764Y-29449
X69783Y-38565
X69800Y-39800
X69900Y-33200
X69905Y-35698
X69930Y-30500
X69980Y-36118
X70000Y-38900
X70098Y-40207
X70180Y-35318
X70200Y-30255
X70217Y-38565
X70300Y-33200
X70305Y-35698
X70315Y-41644
X70380Y-36118
X70400Y-38900
X70435Y-30025
X70502Y-39705
X70580Y-35318
X70620Y-30290
X70669Y-41713
X70700Y-33200
X70705Y-35698
X70728Y-38565
X70780Y-36118
X70875Y-29995
X70900Y-39800
X70900Y-40200
X70980Y-35318
X71073Y-41516
X71073Y-41811
X71095Y-30220
X71100Y-33200
X71105Y-35698
X71180Y-36118
X71200Y-39200
X71200Y-39600
X71200Y-40000
X71200Y-40500
X71211Y-34144
X71289Y-48996
X71368Y-33553
X71380Y-35318
X71417Y-34380
X71417Y-41545
X71457Y-34685
X71465Y-38902
X71486Y-33848
X71500Y-33200
X71500Y-39400
X71500Y-39800
X71500Y-40200
X71576Y-42494
X71722Y-36093
X71732Y-38337
X71811Y-28642
X71900Y-33169
X71929Y-37904
X71969Y-27913
X71969Y-28268
X71969Y-42451
X71978Y-40591
X72100Y-26700
X72136Y-41280
X72244Y-42372
X72411Y-40541
X72559Y-42490
X72953Y-32067
X72963Y-40482
X72969Y-37528
X73000Y-36000
X73000Y-36400
X73041Y-34931
X73051Y-33807
X73071Y-34374
X73179Y-31801
X73179Y-40108
X73199Y-35197
X73400Y-36400
X73415Y-37923
X73484Y-34244
X73504Y-33839
X73800Y-36400
X73800Y-40200
X73800Y-40600
X73800Y-41000
X73809Y-38061
X74134Y-38435
X74144Y-38947
X74173Y-39272
X74200Y-36400
X74200Y-40200
X74200Y-40600
X74200Y-41000
X74370Y-38159
X74370Y-38671
X74537Y-48917
X74600Y-36400
X74600Y-40200
X74600Y-40600
X74600Y-41000
X74913Y-30280
X75000Y-40600
X75000Y-41000
X75020Y-24419
X75020Y-23376
X75049Y-35276
X75108Y-35581
X75187Y-32943
X75197Y-30728
X75307Y-27882
X75423Y-23366
X75472Y-24321
X75705Y-28016
X75719Y-35246
X75728Y-33563
X75748Y-34183
X75758Y-34724
X76240Y-50167
X76496Y-46870
X76496Y-48770
X77785Y-48947
X78156Y-34085
X81024Y-48976
T2
X56890Y-30020
X59154Y-29429
T4
X39862Y-37264
X45472Y-34488
X44252Y-34843
X37700Y-36400
X40276Y-31378
X41969Y-51142
X44921Y-33189
X40827Y-50709
T5
X34847Y-39075
X34847Y-41043
X34867Y-43917
X34867Y-45886
T6
X43957Y-24304
X43957Y-25304
X44957Y-24304
X44957Y-25304
X45957Y-24304
X45957Y-25304
X46957Y-24304
X46957Y-25304
X47957Y-24304
X47957Y-25304
X48957Y-24304
X48957Y-25304
X50995Y-30775
X50995Y-31775
X50995Y-32775
X50995Y-33775
X50995Y-34775
X50995Y-35775
X50995Y-36775
X50995Y-37775
X50995Y-38775
X50995Y-39775
X51995Y-30775
X51995Y-31775
X51995Y-32775
X51995Y-33775
X51995Y-34775
X51995Y-35775
X51995Y-36775
X51995Y-37775
X51995Y-38775
X51995Y-39775
X37425Y-47700
X37425Y-48700
X37425Y-49700
X37425Y-50700
X37425Y-51700
X37425Y-52700
X37425Y-53700
X57461Y-31831
X57461Y-32831
X53062Y-24301
X54062Y-24301
X55062Y-24301
X56062Y-24301
X57062Y-24301
X58062Y-24301
X82530Y-27313
X82530Y-28313
X82530Y-29313
X82530Y-30313
X82530Y-31313
X82530Y-32313
X82530Y-33313
X82530Y-34313
X82530Y-35313
X82530Y-36313
X82530Y-37313
X82530Y-38313
X82530Y-39313
X82530Y-40313
X82530Y-41313
X82530Y-42313
X82530Y-43313
X82530Y-44313
X52057Y-51157
X52057Y-52157
X34853Y-24304
X34853Y-25304
X35853Y-24304
X35853Y-25304
X36853Y-24304
X36853Y-25304
X37853Y-24304
X37853Y-25304
X38853Y-24304
X38853Y-25304
X39853Y-24304
X39853Y-25304
X78175Y-24300
X78175Y-25300
X79175Y-24300
X79175Y-25300
X80175Y-24300
X80175Y-25300
X81175Y-24300
X81175Y-25300
X51007Y-51157
X51007Y-52157
X62166Y-24300
X63166Y-24300
X64166Y-24300
X65166Y-24300
X66166Y-24300
X67166Y-24300
X63360Y-46311
X64360Y-46311
X65360Y-46311
X66360Y-46311
X66959Y-27311
X67360Y-46311
X67959Y-27311
X68360Y-46311
X68959Y-27311
X69360Y-46311
X69959Y-27311
X70360Y-46311
X70959Y-27311
X71360Y-46311
X71959Y-27311
X72360Y-46311
X72959Y-27311
X73959Y-27311
X73959Y-46311
X74959Y-46311
X75959Y-27311
X75959Y-46311
X76959Y-27311
X76959Y-46311
X77959Y-27311
X77959Y-46311
X78959Y-27311
X78959Y-46311
X79959Y-27311
X79959Y-46311
X80959Y-27311
X80959Y-46311
X50994Y-41793
X50994Y-42793
X50994Y-43793
X50994Y-44793
X50994Y-45793
X50994Y-46793
X50994Y-47793
X50994Y-48793
X71270Y-24305
X71270Y-25305
X72270Y-24305
X72270Y-25305
X73270Y-24305
X73270Y-25305
X74270Y-24305
X74270Y-25305
X51995Y-41793
X51995Y-42793
X51995Y-43793
X51995Y-44793
X51995Y-45793
X51995Y-46793
X51995Y-47793
X51995Y-48793
T7
X34065Y-29528
X35246Y-31378
X36427Y-29528
T8
X83602Y-50079
X83563Y-25039
X54547Y-51673
X34862Y-35689
T3
G00X33647Y-38681
M15
G01X33922Y-38681
M16
G05
G00X33922Y-41437
M15
G01X33647Y-41437
M16
G05
G00X33666Y-43524
M15
G01X33942Y-43524
M16
G05
G00X33942Y-46280
M15
G01X33666Y-46280
M16
G05
T0
M30
